<?xml version="1.0" encoding="utf-8"?>
<!-- Generator: Adobe Illustrator 18.0.0, SVG Export Plug-In . SVG Version: 6.00 Build 0)  -->
<!DOCTYPE svg PUBLIC "-//W3C//DTD SVG 1.1//EN" "http://www.w3.org/Graphics/SVG/1.1/DTD/svg11.dtd">
<svg version="1.1" id="Layer_1" xmlns="http://www.w3.org/2000/svg" xmlns:xlink="http://www.w3.org/1999/xlink" x="0px" y="0px"
	 viewBox="0 0 850.4 405.7" enable-background="new 0 0 850.4 405.7" xml:space="preserve">
<g>
	<defs>
		<polygon id="SVGID_1_" points="22.4,64.8 56.3,155.8 22.4,246.9 480.1,246.9 480.1,64.8 		"/>
	</defs>
	<clipPath id="SVGID_2_">
		<use xlink:href="#SVGID_1_"  overflow="visible"/>
	</clipPath>
	
		<linearGradient id="SVGID_3_" gradientUnits="userSpaceOnUse" x1="1.949" y1="467.4068" x2="7.8364" y2="467.4068" gradientTransform="matrix(73.0993 0 0 -73.0993 -72.8975 34322.9609)">
		<stop  offset="0" style="stop-color:#00595A"/>
		<stop  offset="1.844734e-03" style="stop-color:#00595A"/>
		<stop  offset="1.933700e-03" style="stop-color:#00595A"/>
		<stop  offset="0.1784" style="stop-color:#005A5B"/>
		<stop  offset="0.3395" style="stop-color:#005E5F"/>
		<stop  offset="0.4945" style="stop-color:#006365"/>
		<stop  offset="0.6458" style="stop-color:#006C6E"/>
		<stop  offset="0.7946" style="stop-color:#26787A"/>
		<stop  offset="0.9393" style="stop-color:#51888A"/>
		<stop  offset="1" style="stop-color:#629092"/>
	</linearGradient>
	<rect x="22.4" y="64.8" clip-path="url(#SVGID_2_)" fill="url(#SVGID_3_)" width="457.7" height="182.1"/>
</g>
<polygon points="480.1,197.2 480.1,246.9 420.7,199.3 "/>
<g>
	<defs>
		<polyline id="SVGID_4_" points="420.7,17.3 420.7,199.3 800,199.3 834,108.3 800,17.3 		"/>
	</defs>
	<clipPath id="SVGID_5_">
		<use xlink:href="#SVGID_4_"  overflow="visible"/>
	</clipPath>
	
		<linearGradient id="SVGID_6_" gradientUnits="userSpaceOnUse" x1="5.9342" y1="468.0427" x2="11.8216" y2="468.0427" gradientTransform="matrix(70.1924 0 0 -70.1924 4.1891 32961.3438)">
		<stop  offset="0" style="stop-color:#00595A"/>
		<stop  offset="1.844734e-03" style="stop-color:#00595A"/>
		<stop  offset="1.933700e-03" style="stop-color:#00595A"/>
		<stop  offset="0.1784" style="stop-color:#005A5B"/>
		<stop  offset="0.3395" style="stop-color:#005E5F"/>
		<stop  offset="0.4945" style="stop-color:#006365"/>
		<stop  offset="0.6458" style="stop-color:#006C6E"/>
		<stop  offset="0.7946" style="stop-color:#26787A"/>
		<stop  offset="0.9393" style="stop-color:#51888A"/>
		<stop  offset="1" style="stop-color:#629092"/>
	</linearGradient>
	<rect x="420.7" y="17.3" clip-path="url(#SVGID_5_)" fill="url(#SVGID_6_)" width="413.2" height="182.1"/>
</g>
<g>
	<defs>
		<rect id="SVGID_7_" x="109.4" y="309.9" width="656.6" height="75.5"/>
	</defs>
	<clipPath id="SVGID_8_">
		<use xlink:href="#SVGID_7_"  overflow="visible"/>
	</clipPath>
	<path clip-path="url(#SVGID_8_)" fill="#00595A" d="M250.4,343.1h7.1c8,0,12.1-3.2,12.1-9.4c0-8.3-7.6-9.5-12.1-9.5h-7.1V343.1z
		 M417.7,343.1h7.1c8,0,12-3.2,12-9.4c0-8.3-7.5-9.5-12-9.5h-7.1V343.1z M190.9,323.4c-9.6,0-15.1,5.4-15.1,14.9v18.9
		c0,12.8,9.4,14.8,15.1,14.8c5.6,0,15.1-1.9,15.1-14.8v-18.9C205.9,328.8,200.4,323.4,190.9,323.4 M495.3,323.4
		c-9.6,0-15.1,5.4-15.1,14.9v18.9c0,12.8,9.4,14.8,15.1,14.8c5.6,0,15.1-1.9,15.1-14.8v-18.9C510.4,328.8,504.9,323.4,495.3,323.4
		 M120,384.2h-7.4c-0.7,0-1.4-0.3-1.9-0.8l-0.5-0.5c-0.5-0.5-0.8-1.2-0.8-1.9v-66.8c0-0.7,0.3-1.4,0.8-1.9l0.5-0.5
		c0.5-0.5,1.2-0.8,1.9-0.8h33.8c0.7,0,1.4,0.3,1.9,0.8l0.5,0.5c0.5,0.5,0.8,1.2,0.8,1.9v7c0,0.7-0.3,1.4-0.8,1.9l-0.5,0.5
		c-0.5,0.5-1.2,0.8-1.9,0.8h-23.2v15.7H145c0.8,0,1.6,0.4,2.1,1c0.5,0.7,1.1,2,0.9,2.9l-1.8,7c-0.1,0.5-0.4,1-0.9,1.4l-0.6,0.5
		c-0.5,0.4-1.1,0.6-1.8,0.6h-19.7V381c0,0.7-0.3,1.4-0.8,1.9l-0.5,0.5C121.4,383.9,120.8,384.2,120,384.2 M654.6,384.2h-7.4
		c-0.7,0-1.4-0.3-1.9-0.8l-0.5-0.5c-0.5-0.5-0.8-1.2-0.8-1.9v-56.6h-16c-0.7,0-1.4-0.3-1.9-0.8l-0.5-0.5c-0.5-0.5-0.8-1.2-0.8-1.9
		v-7c0-0.7,0.3-1.4,0.8-1.9l0.5-0.5c0.5-0.5,1.2-0.8,1.9-0.8h47.1c0.8,0,1.6,0.4,2.1,1c0.5,0.7,1.1,2,0.9,2.9l-1.8,7
		c-0.1,0.6-0.5,1-0.9,1.4l-0.6,0.5c-0.5,0.4-1.1,0.6-1.7,0.6h-15.3V381c0,0.7-0.3,1.4-0.8,1.9l-0.5,0.5
		C656,383.9,655.3,384.2,654.6,384.2 M743.3,384.2h-7.4c-0.7,0-1.4-0.3-1.9-0.8l-0.5-0.5c-0.5-0.5-0.8-1.2-0.8-1.9v-28.3h-30.3V381
		c0,0.7-0.3,1.4-0.8,1.9l-0.5,0.5c-0.5,0.5-1.2,0.8-1.9,0.8h-7.4c-0.7,0-1.4-0.3-1.9-0.8l-0.5-0.5c-0.5-0.5-0.8-1.2-0.8-1.9v-66.3
		c0-0.6,0.2-1.3,0.6-1.7l0.5-0.6c0.4-0.5,1-0.9,1.7-0.9l7.4-1c0.7-0.1,1.5,0.1,2.1,0.6c0.6,0.5,1.5,1.7,1.5,2.5v25.7h30.3v-24.5
		c0-0.6,0.2-1.3,0.6-1.7l0.5-0.6c0.4-0.5,1-0.9,1.7-0.9l7.4-1c0.7-0.1,1.5,0.1,2.1,0.6c0.6,0.5,1.5,1.7,1.5,2.5V381
		c0,0.7-0.3,1.4-0.8,1.9l-0.5,0.5C744.7,383.9,744,384.2,743.3,384.2 M280.9,384.5c-8.2,0-13.4-6.7-15.4-9.3l-15-18.7V381
		c0,0.7-0.3,1.4-0.8,1.9l-0.5,0.5c-0.5,0.5-1.2,0.8-1.9,0.8h-7.4c-0.7,0-1.4-0.3-1.9-0.8l-0.5-0.5c-0.5-0.5-0.8-1.2-0.8-1.9v-66.8
		c0-0.7,0.3-1.4,0.8-1.9l0.5-0.5c0.5-0.5,1.2-0.8,1.9-0.8h17.9c6.5,0,12,1.3,16.2,3.9c4.4,2.8,9.6,8.3,9.6,18.8
		c0,13.4-9.2,19.4-16.9,21.4l10.6,12.8c1.9,2.2,3.7,3.2,5.9,3.2c1.7-0.2,2.5,0,3.2,0.9c0.5,0.6,1.1,1.9,1,2.6l-1.1,6.8
		c-0.1,0.7-0.4,1.2-1,1.7l-0.6,0.5c-0.4,0.3-0.8,0.5-1.3,0.6C282.5,384.4,281.7,384.5,280.9,384.5 M448.1,384.5
		c-8.2,0-13.4-6.7-15.4-9.3l-15-18.7V381c0,0.7-0.3,1.4-0.8,1.9l-0.5,0.5c-0.5,0.5-1.2,0.8-1.9,0.8H407c-0.7,0-1.4-0.3-1.9-0.8
		l-0.5-0.5c-0.5-0.5-0.8-1.2-0.8-1.9v-66.8c0-0.7,0.3-1.4,0.8-1.9l0.5-0.5c0.5-0.5,1.2-0.8,1.9-0.8h17.9c6.5,0,12,1.3,16.2,3.9
		c4.4,2.8,9.6,8.3,9.6,18.8c0,13.4-9.2,19.4-16.9,21.4l10.6,12.8c1.9,2.2,3.7,3.2,5.9,3.2c1.6-0.2,2.5,0,3.2,0.9
		c0.5,0.6,1.1,1.9,1,2.7l-1.1,6.8c-0.1,0.7-0.5,1.2-1,1.7l-0.6,0.5c-0.4,0.3-0.8,0.5-1.3,0.6C449.8,384.4,449,384.5,448.1,384.5
		 M593.6,384.9c-0.2,0-0.3,0-0.5,0l-7.2-1.4c-0.5-0.1-1-0.4-1.4-0.7l-0.6-0.6c-0.3-0.3-0.6-0.7-0.7-1.2l-8.2-29.6l-8.8,31.1
		c-0.2,0.6-0.5,1.1-1,1.5l-0.7,0.5c-0.6,0.4-1.4,0.6-2.1,0.5l-7.4-1.4c-0.5-0.1-1-0.4-1.4-0.8l-0.6-0.6c-0.3-0.3-0.5-0.6-0.7-1
		l-22.3-65.4c-0.3-0.9-0.1-1.9,0.5-2.6l0.5-0.6c0.4-0.5,1-0.9,1.7-1l7.9-1.1c0.7-0.1,1.3,0.1,1.9,0.4l0.6,0.4
		c0.5,0.3,0.9,0.9,1.1,1.5l14.7,47.3l9.5-34v-11.3c0-0.6,0.2-1.3,0.6-1.7l0.5-0.6c0.4-0.5,1-0.9,1.7-0.9l7.4-1
		c0.7-0.1,1.5,0.1,2.1,0.6c0.6,0.5,1.5,1.7,1.5,2.5v13.7l8.8,32.3l13.4-45.4c0.1-0.4,0.3-0.7,0.5-1l0.5-0.6c0.4-0.5,1.1-0.8,1.7-0.9
		l8.8-1.2c0.7-0.1,1.3,0.1,1.9,0.4l0.6,0.4c1,0.7,1.5,2,1.1,3.1l-22.6,68.2c-0.2,0.5-0.5,1-1,1.4l-0.7,0.5
		C594.7,384.7,594.2,384.9,593.6,384.9 M190.9,385.4c-18,0-29.1-10.5-29.1-27.3v-20.5c0-17,11.2-27.6,29.1-27.6s29.1,10.6,29.1,27.6
		v20.5C220,374.9,208.8,385.4,190.9,385.4 M359,385.4c-17.9,0-29-10.5-29-27.3v-20.5c0-17.1,11.1-27.6,29-27.6
		c12.3,0,22.1,5.8,26,15.5c0.3,0.7,0.3,1.5-0.1,2.2c-0.3,0.6-1.1,1.7-1.7,1.9l-6.7,2.8c-0.6,0.2-1.2,0.3-1.8,0.1l-0.7-0.2
		c-0.7-0.2-1.4-0.7-1.7-1.4c-2.3-4.7-7.3-7.5-13.3-7.5c-9.5,0-15,5.4-15,14.9v18.9c0,12.8,9.4,14.8,15,14.8c6.8,0,15-2.5,15.2-14.4
		h-8.8c-0.6,0-1.3-0.2-1.7-0.6l-0.6-0.5c-0.5-0.4-0.9-1-1-1.7l-1-7c-0.1-0.7,0.1-1.5,0.6-2.1c0.5-0.6,1.7-1.5,2.5-1.5h20.7
		c0.7,0,1.4,0.3,1.9,0.8l0.5,0.5c0.5,0.5,0.8,1.2,0.8,1.9v10.7C388.1,375.2,377.2,385.4,359,385.4 M495.3,385.4
		c-18,0-29.1-10.5-29.1-27.3v-20.5c0-17,11.2-27.6,29.1-27.6c18,0,29.1,10.6,29.1,27.6v20.5C524.5,374.9,513.3,385.4,495.3,385.4"/>
</g>
<g>
	<path fill="#FFFFFF" d="M196,171.7v-17.4l-0.5-1.2l-1-1l-1.2-0.5h-36.2l-1.2,0.5l-1,1l-0.5,1.5l1.9,14.3l0.5,1l1,1.1l1.2,0.5h15.4
		c-0.1,15.9-12.1,19.3-22.1,19.3c-8,0-21.5-2.6-21.5-20.3v-26.5c0-12.9,8-20.6,21.5-20.6c14.7,0,19.9,12,20.1,12.5l1.1,1l1.5,0.4
		l1.2-0.1l14.6-6.1l0.9-0.9l0.6-1.3l0.1-1.3c-0.1-0.2-8.2-24.2-40.1-24.2c-27.4,0-43.8,14.8-43.8,39.5v28.9c0,24.4,16.4,39,43.8,39
		C180,210.7,196,196.5,196,171.7 M241.1,189v-24.7h28.8l0.9-0.2l1.3-0.7l0.8-1.1l3.7-14.5l-0.2-1.4l-0.7-1.2l-1.5-0.8h-33.1v-19.7
		H279l1.2-0.5l1-1l0.5-1.2v-14.3l-0.5-1.2l-1-1l-1.2-0.5h-57.1l-1.2,0.5l-1,1l-0.5,1.2v98.5l0.5,1.2l1,1l1.2,0.5h55.1l1.1-0.4
		l1.2-0.9l0.7-1.1l2.1-14.3l-0.3-1.3l-0.9-1.2l-1.4-0.7H241.1z M382.9,108.2l-0.2-1.4l-0.7-1.2l-1.5-0.8h-75.9l-1.2,0.5l-1,1
		l-0.5,1.2v14.3l0.5,1.2l1,1l1.2,0.5h25.7v81.4l0.5,1.2l1,1l1.2,0.5h16.4l1.2-0.5l1-1l0.5-1.2v-81.4h23.9l0.9-0.2l1.3-0.7l0.8-1.1
		L382.9,108.2z"/>
	<path fill="#FFFFFF" d="M527.1,85.9c0-7.2,4.6-11.2,12.8-11.2c10.8,0,18.2,5.8,18.3,5.9l1.4,0.3l1.5-0.3l1.1-0.8l7.9-12.1l0.2-1.3
		l-0.3-1.5l-0.6-1c-0.5-0.4-11.9-9.2-30.1-9.2c-20,0-34.5,13.3-34.5,31.6c0,19.4,15.6,25.3,28.1,30.1c9.9,3.7,16.4,6.7,16.4,13.7
		c0,10-8,12.1-14.8,12.1c-7.2,0-15.7-3.6-20.1-7.1l-1.3-0.4l-1.5,0.2l-1.2,0.7l-8.8,11.6l-0.3,1.4l0.3,1.5l0.7,1
		c0.6,0.4,14.7,10.9,32.2,10.9c17.9,0,37.1-8.4,37.1-32.2c0-21.2-17.6-27.6-29.2-31.8C533.8,95.1,527.1,92.2,527.1,85.9 M615,140.5
		v-24.7h28.8l0.9-0.2l1.3-0.7l0.8-1.1l3.7-14.5l-0.2-1.4l-0.8-1.2l-1.5-0.8H615V76.2h37.9l1.2-0.5l1-1l0.5-1.2V59.1l-0.5-1.2l-1-1
		l-1.2-0.5h-57.1l-1.2,0.5l-1.1,1l-0.5,1.2v98.5l0.5,1.2l1.1,1l1.2,0.5H651l1.1-0.4l1.2-0.9l0.7-1.1l2.1-14.3l-0.3-1.3l-0.9-1.2
		l-1.4-0.7H615z M754.6,59.7l-0.2-1.4l-0.7-1.2l-1.5-0.8h-75.9l-1.2,0.5l-1,1l-0.5,1.2v14.3l0.5,1.2l1,1l1.2,0.5H702v81.4l0.5,1.2
		l1.1,1l1.2,0.5h16.4l1.2-0.5l1-1l0.5-1.2V76.2h23.9l0.9-0.2l1.3-0.7l0.8-1.1L754.6,59.7z"/>
</g>
</svg>
