<?xml version="1.0" encoding="utf-8"?>
<!-- Generator: Adobe Illustrator 18.0.0, SVG Export Plug-In . SVG Version: 6.00 Build 0)  -->
<!DOCTYPE svg PUBLIC "-//W3C//DTD SVG 1.1//EN" "http://www.w3.org/Graphics/SVG/1.1/DTD/svg11.dtd">
<svg version="1.1" id="Layer_1" xmlns="http://www.w3.org/2000/svg" xmlns:xlink="http://www.w3.org/1999/xlink" x="0px" y="0px"
	 viewBox="0 0 850.4 405.7" enable-background="new 0 0 850.4 405.7" xml:space="preserve">
<path fill="#FFFFFF" d="M22.4,64.8l33.9,91l-33.9,91h457.7V64.8H22.4z M196,171.7c0,24.8-16,39-43.8,39c-27.4,0-43.8-14.6-43.8-39
	v-28.9c0-24.7,16.4-39.5,43.8-39.5c31.9,0,40,23.9,40.1,24.2l-0.1,1.3l-0.6,1.3l-0.9,0.9l-14.6,6.1l-1.2,0.1l-1.5-0.4l-1.1-1
	c-0.2-0.5-5.5-12.5-20.1-12.5c-13.5,0-21.5,7.7-21.5,20.6v26.5c0,17.7,13.5,20.3,21.5,20.3c10,0,22-3.4,22.1-19.3h-15.4l-1.2-0.5
	l-1-1.1l-0.5-1l-1.9-14.3l0.5-1.5l1-1l1.2-0.5h36.2l1.2,0.5l1,1l0.5,1.2V171.7z M280,206.5l-0.7,1.1l-1.2,0.9l-1.1,0.4h-55.1
	l-1.2-0.5l-1-1l-0.5-1.2v-98.5l0.5-1.2l1-1l1.2-0.5H279l1.2,0.5l1,1l0.5,1.2v14.3l-0.5,1.2l-1,1l-1.2,0.5h-37.9v19.7h33.1l1.5,0.8
	l0.7,1.2l0.2,1.4l-3.7,14.5l-0.8,1.1l-1.3,0.7l-0.9,0.2h-28.8V189h38.3l1.4,0.7l0.9,1.2l0.3,1.3L280,206.5z M379.2,122.6l-0.8,1.1
	l-1.3,0.7l-0.9,0.2h-23.9v81.4l-0.5,1.2l-1,1l-1.2,0.5h-16.4l-1.2-0.5l-1-1l-0.5-1.2v-81.4h-25.7l-1.2-0.5l-1-1l-0.5-1.2v-14.3
	l0.5-1.2l1-1l1.2-0.5h75.9l1.5,0.8l0.7,1.2l0.2,1.4L379.2,122.6z M480.1,246.9l-59.4-47.6l59.4-2.1V246.9z"/>
<g>
	<path fill="#FFFFFF" d="M250.4,343.1h7.1c8,0,12.1-3.2,12.1-9.4c0-8.3-7.6-9.5-12.1-9.5h-7.1V343.1z M417.7,343.1h7.1
		c8,0,12-3.2,12-9.4c0-8.3-7.5-9.5-12-9.5h-7.1V343.1z M190.9,323.4c-9.6,0-15.1,5.4-15.1,14.9v18.9c0,12.8,9.4,14.8,15.1,14.8
		c5.6,0,15.1-1.9,15.1-14.8v-18.9C205.9,328.8,200.4,323.4,190.9,323.4 M495.3,323.4c-9.6,0-15.1,5.4-15.1,14.9v18.9
		c0,12.8,9.4,14.8,15.1,14.8c5.6,0,15.1-1.9,15.1-14.8v-18.9C510.4,328.8,504.9,323.4,495.3,323.4 M120,384.2h-7.4
		c-0.7,0-1.4-0.3-1.9-0.8l-0.5-0.5c-0.5-0.5-0.8-1.2-0.8-1.9v-66.8c0-0.7,0.3-1.4,0.8-1.9l0.5-0.5c0.5-0.5,1.2-0.8,1.9-0.8h33.8
		c0.7,0,1.4,0.3,1.9,0.8l0.5,0.5c0.5,0.5,0.8,1.2,0.8,1.9v7c0,0.7-0.3,1.4-0.8,1.9l-0.5,0.5c-0.5,0.5-1.2,0.8-1.9,0.8h-23.2v15.7
		H145c0.8,0,1.6,0.4,2.1,1c0.5,0.7,1.1,2,0.9,2.9l-1.8,7c-0.1,0.5-0.4,1-0.9,1.4l-0.6,0.5c-0.5,0.4-1.1,0.6-1.8,0.6h-19.7V381
		c0,0.7-0.3,1.4-0.8,1.9l-0.5,0.5C121.4,383.9,120.8,384.2,120,384.2 M654.6,384.2h-7.4c-0.7,0-1.4-0.3-1.9-0.8l-0.5-0.5
		c-0.5-0.5-0.8-1.2-0.8-1.9v-56.6h-16c-0.7,0-1.4-0.3-1.9-0.8l-0.5-0.5c-0.5-0.5-0.8-1.2-0.8-1.9v-7c0-0.7,0.3-1.4,0.8-1.9l0.5-0.5
		c0.5-0.5,1.2-0.8,1.9-0.8h47.1c0.8,0,1.6,0.4,2.1,1c0.5,0.7,1.1,2,0.9,2.9l-1.8,7c-0.1,0.6-0.5,1-0.9,1.4l-0.6,0.5
		c-0.5,0.4-1.1,0.6-1.7,0.6h-15.3V381c0,0.7-0.3,1.4-0.8,1.9l-0.5,0.5C656,383.9,655.3,384.2,654.6,384.2 M743.3,384.2h-7.4
		c-0.7,0-1.4-0.3-1.9-0.8l-0.5-0.5c-0.5-0.5-0.8-1.2-0.8-1.9v-28.3h-30.3V381c0,0.7-0.3,1.4-0.8,1.9l-0.5,0.5
		c-0.5,0.5-1.2,0.8-1.9,0.8h-7.4c-0.7,0-1.4-0.3-1.9-0.8l-0.5-0.5c-0.5-0.5-0.8-1.2-0.8-1.9v-66.3c0-0.6,0.2-1.3,0.6-1.7l0.5-0.6
		c0.4-0.5,1-0.9,1.7-0.9l7.4-1c0.7-0.1,1.5,0.1,2.1,0.6c0.6,0.5,1.5,1.7,1.5,2.5v25.7h30.3v-24.5c0-0.6,0.2-1.3,0.6-1.7l0.5-0.6
		c0.4-0.5,1-0.9,1.7-0.9l7.4-1c0.7-0.1,1.5,0.1,2.1,0.6c0.6,0.5,1.5,1.7,1.5,2.5V381c0,0.7-0.3,1.4-0.8,1.9l-0.5,0.5
		C744.7,383.9,744,384.2,743.3,384.2 M280.9,384.5c-8.2,0-13.4-6.7-15.4-9.3l-15-18.7V381c0,0.7-0.3,1.4-0.8,1.9l-0.5,0.5
		c-0.5,0.5-1.2,0.8-1.9,0.8h-7.4c-0.7,0-1.4-0.3-1.9-0.8l-0.5-0.5c-0.5-0.5-0.8-1.2-0.8-1.9v-66.8c0-0.7,0.3-1.4,0.8-1.9l0.5-0.5
		c0.5-0.5,1.2-0.8,1.9-0.8h17.9c6.5,0,12,1.3,16.2,3.9c4.4,2.8,9.6,8.3,9.6,18.8c0,13.4-9.2,19.4-16.9,21.4l10.6,12.8
		c1.9,2.2,3.7,3.2,5.9,3.2c1.7-0.2,2.5,0,3.2,0.9c0.5,0.6,1.1,1.9,1,2.6l-1.1,6.8c-0.1,0.7-0.4,1.2-1,1.7l-0.6,0.5
		c-0.4,0.3-0.8,0.5-1.3,0.6C282.5,384.4,281.7,384.5,280.9,384.5 M448.1,384.5c-8.2,0-13.4-6.7-15.4-9.3l-15-18.7V381
		c0,0.7-0.3,1.4-0.8,1.9l-0.5,0.5c-0.5,0.5-1.2,0.8-1.9,0.8H407c-0.7,0-1.4-0.3-1.9-0.8l-0.5-0.5c-0.5-0.5-0.8-1.2-0.8-1.9v-66.8
		c0-0.7,0.3-1.4,0.8-1.9l0.5-0.5c0.5-0.5,1.2-0.8,1.9-0.8h17.9c6.5,0,12,1.3,16.2,3.9c4.4,2.8,9.6,8.3,9.6,18.8
		c0,13.4-9.2,19.4-16.9,21.4l10.6,12.8c1.9,2.2,3.7,3.2,5.9,3.2c1.6-0.2,2.5,0,3.2,0.9c0.5,0.6,1.1,1.9,1,2.7l-1.1,6.8
		c-0.1,0.7-0.5,1.2-1,1.7l-0.6,0.5c-0.4,0.3-0.8,0.5-1.3,0.6C449.8,384.4,449,384.5,448.1,384.5 M593.6,384.9c-0.2,0-0.3,0-0.5,0
		l-7.2-1.4c-0.5-0.1-1-0.4-1.4-0.7l-0.6-0.6c-0.3-0.3-0.6-0.7-0.7-1.2l-8.2-29.6l-8.8,31.1c-0.2,0.6-0.5,1.1-1,1.5l-0.7,0.5
		c-0.6,0.4-1.4,0.6-2.1,0.5l-7.4-1.4c-0.5-0.1-1-0.4-1.4-0.8l-0.6-0.6c-0.3-0.3-0.5-0.6-0.7-1l-22.3-65.4c-0.3-0.9-0.1-1.9,0.5-2.6
		l0.5-0.6c0.4-0.5,1-0.9,1.7-1l7.9-1.1c0.7-0.1,1.3,0.1,1.9,0.4l0.6,0.4c0.5,0.3,0.9,0.9,1.1,1.5l14.7,47.3l9.5-34v-11.3
		c0-0.6,0.2-1.3,0.6-1.7l0.5-0.6c0.4-0.5,1-0.9,1.7-0.9l7.4-1c0.7-0.1,1.5,0.1,2.1,0.6c0.6,0.5,1.5,1.7,1.5,2.5v13.7l8.8,32.3
		l13.4-45.4c0.1-0.4,0.3-0.7,0.5-1l0.5-0.6c0.4-0.5,1.1-0.8,1.7-0.9l8.8-1.2c0.7-0.1,1.3,0.1,1.9,0.4l0.6,0.4c1,0.7,1.5,2,1.1,3.1
		l-22.6,68.2c-0.2,0.5-0.5,1-1,1.4l-0.7,0.5C594.7,384.7,594.2,384.9,593.6,384.9 M190.9,385.4c-18,0-29.1-10.5-29.1-27.3v-20.5
		c0-17,11.2-27.6,29.1-27.6s29.1,10.6,29.1,27.6v20.5C220,374.9,208.8,385.4,190.9,385.4 M359,385.4c-17.9,0-29-10.5-29-27.3v-20.5
		c0-17.1,11.1-27.6,29-27.6c12.3,0,22.1,5.8,26,15.5c0.3,0.7,0.3,1.5-0.1,2.2c-0.3,0.6-1.1,1.7-1.7,1.9l-6.7,2.8
		c-0.6,0.2-1.2,0.3-1.8,0.1l-0.7-0.2c-0.7-0.2-1.4-0.7-1.7-1.4c-2.3-4.7-7.3-7.5-13.3-7.5c-9.5,0-15,5.4-15,14.9v18.9
		c0,12.8,9.4,14.8,15,14.8c6.8,0,15-2.5,15.2-14.4h-8.8c-0.6,0-1.3-0.2-1.7-0.6l-0.6-0.5c-0.5-0.4-0.9-1-1-1.7l-1-7
		c-0.1-0.7,0.1-1.5,0.6-2.1c0.5-0.6,1.7-1.5,2.5-1.5h20.7c0.7,0,1.4,0.3,1.9,0.8l0.5,0.5c0.5,0.5,0.8,1.2,0.8,1.9v10.7
		C388.1,375.2,377.2,385.4,359,385.4 M495.3,385.4c-18,0-29.1-10.5-29.1-27.3v-20.5c0-17,11.2-27.6,29.1-27.6
		c18,0,29.1,10.6,29.1,27.6v20.5C524.5,374.9,513.3,385.4,495.3,385.4"/>
</g>
<path fill="#FFFFFF" d="M800,17.3H420.7v182.1H800l33.9-91L800,17.3z M534.6,162.2c-17.5,0-31.6-10.5-32.2-10.9l-0.7-1l-0.3-1.5
	l0.3-1.4l8.8-11.6l1.2-0.7l1.5-0.2l1.3,0.4c4.3,3.4,12.8,7.1,20.1,7.1c6.7,0,14.8-2.1,14.8-12.1c0-7-6.5-10-16.4-13.7
	c-12.5-4.8-28.1-10.7-28.1-30.1c0-18.3,14.5-31.6,34.5-31.6c18.3,0,29.7,8.8,30.1,9.2l0.6,1l0.3,1.5l-0.2,1.3l-7.9,12.1l-1.1,0.8
	l-1.5,0.3l-1.4-0.3c-0.1-0.1-7.5-5.9-18.3-5.9c-8.3,0-12.8,4-12.8,11.2c0,6.2,6.7,9.2,15.4,12.4c11.6,4.2,29.2,10.5,29.2,31.8
	C571.7,153.8,552.5,162.2,534.6,162.2z M653.9,158l-0.7,1.1l-1.2,0.9l-1.1,0.4h-55.1l-1.2-0.5l-1.1-1l-0.5-1.2V59.1l0.5-1.2l1.1-1
	l1.2-0.5h57.1l1.2,0.5l1,1l0.5,1.2v14.3l-0.5,1.2l-1,1l-1.2,0.5H615V96h33.1l1.5,0.8l0.8,1.2l0.2,1.4l-3.7,14.5l-0.8,1.1l-1.3,0.7
	l-0.9,0.2H615v24.7h38.3l1.4,0.7l0.9,1.2l0.3,1.3L653.9,158z M750.9,74.2l-0.8,1.1l-1.3,0.7l-0.9,0.2H724v81.4l-0.5,1.2l-1,1
	l-1.2,0.5h-16.4l-1.2-0.5l-1.1-1l-0.5-1.2V76.2h-25.7l-1.2-0.5l-1-1l-0.5-1.2V59.1l0.5-1.2l1-1l1.2-0.5h75.9l1.5,0.8l0.7,1.2
	l0.2,1.4L750.9,74.2z"/>
</svg>
