<?xml version="1.0" encoding="utf-8"?>
<!-- Generator: Adobe Illustrator 22.0.1, SVG Export Plug-In . SVG Version: 6.00 Build 0)  -->
<svg version="1.1" id="Layer_1" xmlns="http://www.w3.org/2000/svg" xmlns:xlink="http://www.w3.org/1999/xlink" x="0px" y="0px"
	 viewBox="0 0 674 304.5" style="enable-background:new 0 0 674 304.5;" xml:space="preserve">
<style type="text/css">
	.st0{fill:#385B6A;}
	.st1{fill:#14B5C2;}
	.st2{fill:#009299;}
	.st3{fill:#005959;}
	.st4{fill:#FECE57;}
	.st5{fill:#FECA55;}
	.st6{fill:#12B0BE;}
	.st7{fill:#11ABBA;}
	.st8{fill:#11A5B5;}
	.st9{fill:#109FB0;}
	.st10{fill:#3C5F6D;}
	.st11{fill:#11A7B7;}
	.st12{fill:#12A8B7;}
	.st13{fill:#109BAD;}
	.st14{fill:#416571;}
	.st15{fill:#6A969A;}
	.st16{fill:#F5DB5A;}
	.st17{fill:#416572;}
	.st18{fill:#357B7B;}
	.st19{fill:#557E87;}
	.st20{fill:#F9D659;}
	.st21{fill:#486C78;}
	.st22{fill:#78A7A7;}
	.st23{fill:#B3CDCD;}
	.st24{fill:#96BABA;}
	.st25{fill:#F5DE5B;}
	.st26{fill:#528E8E;}
	.st27{fill:#FBD258;}
	.st28{fill:#537A83;}
	.st29{fill:#4C727D;}
	.st30{fill:#4A6F7A;}
	.st31{fill:#FDFEFE;}
	.st32{fill:#FEFEFE;}
	.st33{fill:#3D606E;}
	.st34{fill:#59828B;}
	.st35{fill:#5C868E;}
	.st36{fill:#608B92;}
	.st37{fill:#638F96;}
	.st38{fill:#FAD458;}
	.st39{fill:#F8D859;}
	.st40{fill:#3E626F;}
	.st41{fill:#456975;}
	.st42{fill:#4F7681;}
	.st43{fill:#466B77;}
	.st44{fill:#527984;}
</style>
<g>
	<path class="st0" d="M302.4,154.7c2.9,3.6,3,7.1,0.4,10.7c-0.4,0.6-0.9,1.1-1.5,1.7c-19.7,19.7-39.5,39.5-59.2,59.2
		c-3.6,3.5-7.5,4-11.5,1.4c-8-7.8-15.9-15.8-23.8-23.7c-0.5-0.5-1.2-1-1-1.9c3.1-8.8,4.8-17.9,7.1-26.9c3.3-13.2,6.8-26.5,10-39.7
		c2.6-10.8,5.4-21.6,8.1-32.4c1-3.9,1.3-7.9,3-11.6c0.4-0.9,0.7-1.9,1.8-2.3c1.1-0.1,1.7,0.7,2.3,1.3c21.1,21.1,42.1,42.1,63.2,63.2
		C301.7,153.9,301.9,154.5,302.4,154.7z"/>
	<path class="st1" d="M58.7,117.3c7.9-8.1,15.8-16.2,23.7-24.3c2.1-2.2,4.4-4.3,6.6-6.4c1.4,0.3,2.1,1.4,3,2.3
		c12.2,12.1,24.3,24.3,36.5,36.4c10.3,10.4,20.7,20.7,31.1,31.1c0.8,0.9,1.8,1.6,2.4,2.7c0.1,0.4,0.1,0.8-0.1,1.2
		c-2.7,2.8-5.5,5.6-8.2,8.4c-20.3,20.3-40.6,40.6-60.9,60.9c-0.7,0.7-1.4,1.2-2.1,1.8c-1.3-1.1-1.3-2.6-1.7-4.1
		c-4.1-17.3-8.6-34.5-12.9-51.8c-4.6-18.4-9.1-36.9-13.8-55.3C61.9,118.2,60.8,117.3,58.7,117.3z"/>
	<path class="st2" d="M426.3,209.3c5.1-4.3,10.4-5.7,16.3-5.3c4.5,0.3,8.4,1.7,11.6,4.9c1.2,1.3,1.9,1.1,3.2,0.1
		c5.7-4.5,12.3-6,19.5-4.6c5.9,1.1,9.5,4.8,11.3,10.4c1.1,3.5,1.5,7.1,1.5,10.8c0,15.8,0,31.5,0,47.3c0,2.1-0.4,3-2.7,2.9
		c-5.1-0.2-10.3-0.2-15.4,0c-2.2,0.1-2.6-0.6-2.6-2.7c0.1-14.4,0-28.7,0-43.1c0-1,0-2.1-0.2-3.1c-0.4-2-0.7-4.2-3.1-4.9
		c-2.6-0.8-4.9,0.1-7.1,1.7c-1.1,0.8-0.8,2-0.8,3.1c0,15.3-0.1,30.6,0.1,45.9c0,2.7-0.8,3.2-3.3,3.1c-4.7-0.2-9.5-0.2-14.3,0
		c-2.4,0.1-3.2-0.4-3.1-3c0.1-14.3,0.1-28.5,0.1-42.8c0-1.1,0.1-2.3-0.2-3.3c-0.4-2-0.8-4.1-3.3-4.7c-2.7-0.6-5,0.3-7,2
		c-0.9,0.8-0.6,1.9-0.6,2.9c0,15.3-0.1,30.6,0,45.9c0,2.4-0.5,3.2-3,3.1c-5-0.2-10.1-0.1-15.1,0c-1.9,0-2.6-0.4-2.6-2.4
		c0.1-21.8,0.1-43.6,0-65.5c0-2,0.7-2.5,2.6-2.5c4.7,0.1,9.3,0.1,14,0C424.7,205.3,427.1,205,426.3,209.3z"/>
	<path class="st3" d="M392,108.9c4.7,0,9.3,0,14,0c1.1,0,2.1-0.1,2,1.5c-0.2,8.5,0.6,17-1.2,25.4c-3.6,16.6-14.7,25.2-31.9,24.8
		c-15.5-0.4-26-9.1-30-25.2c-3.8-15.2-3.8-30.5-0.1-45.7c2.3-9.1,6.4-17.4,15.2-21.8c11.1-5.7,22.4-5.5,33.4,0.5
		c4.1,2.2,6.5,6.1,8.5,10.1c1.8,3.7,3,7.6,4.1,11.6c0.4,1.4,0.1,2-1.3,2.4c-5.9,1.6-11.8,3.3-17.7,5.1c-1.6,0.5-2.2,0-2.4-1.6
		c-0.4-2.9-1.4-5.6-2.5-8.3c-2.2-5.1-8.4-6.1-12.2-2.1c-2.5,2.6-3.2,5.9-3.6,9.2c-1.5,11.9-1.6,23.8,0.2,35.7
		c0.2,1.5,0.7,2.9,1.2,4.3c1.6,4.8,5,7.1,9.9,6.8c5-0.3,7.5-2.7,8.6-8c1.5-7.6,1.5-7.6-6.2-7.6c-4.7,0-4,0.6-4.1-4.2
		c0-3.5,0.1-7.1,0-10.6c-0.1-1.8,0.4-2.5,2.3-2.4C382.9,109,387.5,108.9,392,108.9z"/>
	<path class="st3" d="M544.6,127.3c1.7-12.1,3.5-24.1,5.6-36.1c0.3-1.9,1-2.5,2.9-2.4c4.5,0.1,8.9,0.1,13.4,0c1.4,0,2,0.3,2.3,1.9
		c2.4,11.2,3.7,22.6,5.5,33.9c0.6,0.9,0.1,2.1,0.7,2.9c1.4-1.9,1-4.3,1.2-6.4c0.7-6.2,1.3-12.5,2.2-18.7c0.4-2.9,0.8-5.9,0.9-8.8
		c0.3-4.8,0.3-4.8,4.9-4.8c4.1,0,8.2,0.1,12.3,0c2-0.1,2.5,0.4,2.1,2.5c-3.9,18.7-7.7,37.4-11.6,56.1c-0.6,3.1-1.4,6.2-1.9,9.3
		c-0.3,1.9-1,2.7-3,2.6c-4.3-0.2-8.6-0.2-12.9,0c-2.4,0.1-3.3-0.6-3.8-3c-2.2-12.6-4.2-25.2-5.7-37.8c-0.4-0.3-0.5-0.8-0.6-1.2
		c-0.1,0.4-0.1,0.8-0.2,1.2c-0.3,0.9,0.2,1.9-0.4,2.8c-1.5,11.8-3.5,23.6-5.6,35.3c-0.3,1.9-0.9,2.8-3.1,2.7
		c-4.4-0.2-8.8-0.1-13.1,0c-1.7,0-2.4-0.4-2.8-2.2c-4.4-21.9-8.9-43.8-13.5-65.7c-0.5-2.3,0.1-2.6,2.2-2.6c4.8,0.1,9.7,0.1,14.5,0
		c1.6,0,2.3,0.4,2.5,2.1c1.5,11,2.8,22,3.8,33c0.5,1.7,0,3.4,0.5,4.7c-0.1,0.8,0.3,0.5,0.2,0.4C544.1,128.4,544.1,127.8,544.6,127.3
		z"/>
	<path class="st2" d="M363.2,277c-11.5-0.1-20.2-5.7-27.1-14.4c-1-1.3-1.1-2,0.2-3.1c4.2-3.6,8.2-7.3,12.2-11.1
		c1.2-1.1,1.9-1,2.8,0.3c1.9,2.4,4.2,4.5,6.7,6.4c1.1,0.8,2.3,1.6,3.5,2.2c4.2,2.1,9,1.2,11.2-1.9c2.4-3.4,1.7-8.9-1.6-12.1
		c-2.4-2.4-5.5-3.9-8.5-5.2c-4.7-2.1-9.2-4.5-13.6-7.1c-16.9-10.1-14.9-33.1-4.5-42.7c5.5-5.1,12-7.3,19.3-7.7
		c12.4-0.8,22.4,3.5,30.1,13.3c0.9,1.1,1,1.7-0.2,2.7c-4.3,3.7-8.5,7.5-12.7,11.4c-1.2,1.1-1.8,0.9-2.8-0.3c-1.5-1.9-3.3-3.5-5-5.3
		c-2-2-4.4-3-7.3-3.1c-2.7-0.1-5,0.4-6.6,2.8c-1.6,2.5-1.5,5.1-0.3,7.7c0.7,1.6,1.9,2.7,3.3,3.7c2.3,1.6,4.8,2.9,7.3,4
		c5.4,2.4,10.5,5.1,15.4,8.5c14.4,10,13.9,34.2,2.4,43.7c-4.9,4.1-10.5,6.3-16.8,7C368.2,277.1,365.7,277.5,363.2,277z"/>
	<path class="st4" d="M100.7,75.1c2.9-3,5.9-6,8.8-9c13.5-13.4,27-26.8,40.5-40.2c0.9-0.8,1.6-1.9,2.8-2.3c0.5,1.8-1,2.5-1.9,3.4
		c-9.5,9.6-19.1,19.2-28.7,28.7c-0.9,0.9-1.8,1.7-2.6,2.6c-0.8,0.9-2.4,1.7-1.9,3.2c0.4,1.6,2.1,1.2,3.4,1.4
		c9.8,2.1,19.7,3.1,29.4,5.2c7.6,1.7,15.5,2.3,23,4.3c4.7,1.3,9.8,0.9,14.6,2.2c9.1,2.5,18.5,2.9,27.7,5.2c3.2,0.8,6.6,1.2,9.9,1.8
		c1.1,0.2,2.2,0.4,3.3-0.2c2.3,1.5,4.1,3.6,5.9,5.7c-1.1,2.8-3.7,4.2-5.5,6.4c-1.6,1.5-3.1,3-4.6,4.6c-2.5,2.4-4.9,4.9-7.4,7.4
		c-1.5,1.2-2.5,3.3-4.8,3.3c-7-1.3-13.9-2.5-20.9-3.6c-6.7-1.1-13.4-2.5-20.1-3.5c-11.8-1.8-23.4-4.3-35.2-6.2
		c-10.3-1.7-20.5-3.9-30.8-5.5c-4-0.6-7.9-1.4-11.8-2c-1.1-0.2-2.2-0.3-3-1.2c-0.8-1.3,0.3-1.9,1-2.5
		C94.6,81.1,97.7,78.1,100.7,75.1z"/>
	<path class="st5" d="M228.9,81.4c-0.4,1.9-2,1.2-2.9,1.1c-7.4-1.2-14.6-3.2-22.1-4c-3.4-0.4-6.8-1.1-10.2-1.6
		c-2.2-0.3-4.3-1.3-6.6-1.7c-7.1-1.3-14.3-2.4-21.4-3.5c-8.2-1.4-16.3-3.5-24.5-4.5c-7.4-0.9-14.7-2.8-22.1-3.6
		c-1.1-0.1-2.3-0.5-2.7-1.7c-0.4-1.3,0.6-2,1.4-2.8c10.9-10.9,21.9-21.9,32.8-32.8c0.8-0.8,1.8-1.4,2.1-2.6c0.9-1,1.7-1.9,2.7-2.8
		c4.2-4.2,9.1-4.2,13.2,0c17.1,17.1,34.1,34.1,51.2,51.2C223,75,225.9,78.2,228.9,81.4z"/>
	<path class="st2" d="M530.1,271.9c-4.2,2.9-7.9,4.8-12.3,5.2c-8.6,0.7-15.6-3.7-18-12.1c-1.9-6.4-2.1-12.9-0.7-19.4
		c2.4-10.8,11-16.5,22.6-15.1c2.2,0.3,4.5,0.4,6.5,1.3c1.4,0.6,1.9,0,1.8-1.4c0-0.1,0-0.2,0-0.3c0.6-9.8-2.8-10.8-11.5-9.7
		c-3.6,0.5-6.9,2.1-10.1,4c-1.2,0.7-1.7,0.6-2.2-0.7c-1.5-3.8-3.1-7.6-4.7-11.4c-0.4-1-0.3-1.5,0.6-2c11.4-6.2,23.4-8.7,36.1-4.5
		c8.6,2.8,11.7,9.9,11.8,18.2c0.3,16.6,0.1,33.2,0.2,49.8c0,1.5-0.6,1.9-2,1.9c-4.9-0.1-9.9-0.1-14.8,0
		C531,275.8,529.3,275.7,530.1,271.9z"/>
	<path class="st3" d="M516.2,123.8c0.1,6.2-0.6,12.1-2.3,17.9c-5.3,17.9-25.6,24.9-40.6,14c-5.3-3.9-8.1-9.5-9.6-15.6
		c-2.7-10.8-2.6-21.6,0-32.4c4.3-17.5,22.8-25.9,38.4-17.3c6.8,3.8,10.3,10,12.3,17.2C515.8,113.1,516.4,118.5,516.2,123.8z"/>
	<path class="st2" d="M647.7,256.8c-0.7,5.7-1.5,11-2.1,16.4c-0.1,1-0.6,1.5-1.5,1.8c-5.8,2.1-11.8,2.9-17.8,1.6
		c-6.9-1.5-10.7-6.7-10.9-15.3c-0.3-8.4-0.1-16.8-0.1-25.2c0-3.9-0.1-7.8,0-11.7c0-1.5-0.5-1.9-1.9-1.9c-5.9-0.2-5.9-0.3-5.9-6.3
		c0-2.9,0.1-5.8,0-8.7c-0.1-1.6,0.5-2.1,2.1-2.1c5.8-0.2,5.8-0.3,5.8-6.2c0-3.7,0.1-7.5,0-11.2c0-1.4,0.4-2.2,1.8-2.7
		c5.5-2.1,10.9-4.2,16.4-6.4c1.7-0.7,2-0.1,2,1.5c-0.1,7.5,0,14.9-0.1,22.4c0,2,0.4,2.9,2.6,2.7c2.5-0.2,5,0,7.5-0.1
		c1.3,0,1.8,0.5,1.8,1.8c-0.1,4.5-0.1,8.9,0,13.4c0,1.5-0.5,2-1.9,1.9c-2.5-0.1-5,0.1-7.5-0.1c-1.7-0.1-2.5,0.3-2.5,2.3
		c0.1,9.6,0,19.2,0,28.8c0,4.3,1.8,5.8,6.1,5.4C643.5,258.8,645.3,257.7,647.7,256.8z"/>
	<path class="st3" d="M438.4,93.4c4.6-4.7,9.2-6.6,14.7-5.8c0.4,0.1,0.7,0,1.1,0.1c4.6,0.7,4.9,1.2,4.2,5.6c-1,5.6-1.9,11.2-2.9,17
		c-1.6-0.4-2.5-1.6-3.8-2.3c-4.6-2.4-9.9-1.3-12.1,2.4c-0.9,1.5-0.9,3.2-0.9,4.9c0,13.7,0,27.4,0.1,41.1c0,2.2-0.5,2.9-2.8,2.8
		c-5.2-0.2-10.4-0.1-15.7,0c-1.7,0-2.3-0.4-2.3-2.2c0.1-22,0-44,0-66c0-1.7,0.5-2.3,2.2-2.2c4.8,0.1,9.5,0.1,14.3,0
		C436.9,88.8,439.7,88.2,438.4,93.4z"/>
	<path class="st2" d="M581.3,208.9c1.3-0.1,1.8-1,2.5-1.5c4.8-3.8,10-4,15.6-2.5c1.5,0.4,2.3,1.1,1.9,3c-1.2,6.3-2.2,12.6-3.3,19.2
		c-2.5-1.6-4.5-3.3-7.2-3.7c-5.9-0.9-9.6,2.1-9.6,8.1c0,13.7-0.1,27.4,0,41.1c0,2.4-0.5,3.2-3,3.1c-5.1-0.2-10.3-0.1-15.4,0
		c-1.7,0-2.2-0.5-2.2-2.2c0-21.9,0.1-43.8,0-65.8c0-1.8,0.6-2.5,2.4-2.4c4.7,0.1,9.3,0.1,14,0C579.5,205.3,582.2,204.9,581.3,208.9z
		"/>
	<path class="st6" d="M58.7,117.3c3.3-1.4,3.3-1.4,4.3,2.4c3.5,14.1,6.7,28.3,10.5,42.3c3,11.1,5.5,22.3,8.4,33.4
		c3.1,12,5.9,24.1,8.8,36.1c-0.7,1.1-1.2,0.3-1.7-0.2c-4-4-7.9-8-11.9-12c0.3-1.2,0-2.4-0.3-3.6c-3-11.3-5.6-22.8-8.5-34.1
		c-2.5-9.6-4.9-19.1-7.2-28.7c-2.1-8.5-4.5-16.9-6.4-25.4c-0.2-0.9,0-2.1-1.1-2.4c-1-0.3-1.4,1-2.2,1.5c-1,0.7-1.7,2.2-3.3,1.4
		C51.5,124.2,55,120.6,58.7,117.3z"/>
	<path class="st7" d="M48.2,127.9c2.6-0.7,3.5-3.5,6-4.8c1.7,4.3,2.2,8.8,3.5,13.1c4.2,14.9,7.5,30,11.4,45
		c3.1,11.7,5.7,23.6,8.8,35.3c0.3,1.1,0.9,2.2-0.7,2.8c-3.4-3.4-6.7-6.7-10.1-10.1c-0.7-6.6-2.8-12.9-4.4-19.3
		c-3.4-13.3-6.6-26.6-9.9-39.8c-1.4-5.8-3.2-11.5-4.4-17.3c-0.2-0.8-0.1-2.1-1.7-1.4c-1.2,0.8-2,2-3.2,2.8c-0.2,0.1-0.5,0.2-0.7,0.2
		c-0.3,0-0.5-0.1-0.7-0.3C43.9,131.8,45.9,129.8,48.2,127.9z"/>
	<path class="st8" d="M42.5,134.1c0.2,0,0.4,0,0.6,0c1.2,0.5,1.4,1.6,1.7,2.7C50,157,54.9,177.3,60,197.5c0.2,0.8,0.5,1.6,0.4,2.5
		c-0.1,0.7-0.1,1.6-1.3,1.4c-3.9-3.9-7.8-7.8-11.8-11.8c0.4-2-0.3-3.9-0.8-5.8c-3.5-14.2-7.1-28.3-10.6-42.5
		C37.3,138.1,40.2,136.3,42.5,134.1z"/>
	<path class="st9" d="M36.4,140.8c1.3,3.5,2,7.1,2.9,10.7c2.3,9.1,4.6,18.1,6.8,27.2c0.7,2.9,1.3,5.8,2.2,8.6
		c0.3,1.1,0.2,1.8-0.9,2.2c-4.6-4.4-9.1-8.8-13.4-13.5c0.5-2-0.3-3.9-0.8-5.7c-1.9-6.9-3.2-14-5.4-20.8c-0.2-1,0.5-1.6,1.1-2.1
		C31.5,145.3,33.2,142.2,36.4,140.8z"/>
	<path class="st10" d="M236.2,89.3c-2.5,2.4-2.6,5.7-3.4,8.8c-1.4,5.9-2.7,11.9-4.4,17.8c-0.8,2.7-1.2,5.4-2,8
		c-2,6.4-3.1,13.1-4.8,19.6c-1.9,7.4-3.6,14.9-5.8,22.2c-2,6.6-3.1,13.5-4.8,20.2c-1.3,5.3-2.2,10.7-4.3,15.7
		c-0.1,0.3-0.4,0.6-0.7,0.9c-1.3,0-1.8-0.9-2.2-1.9c1.1-6.1,3-12.1,4.5-18.1c3.2-13.4,6.5-26.7,9.9-40.1c2.8-11.2,5.6-22.4,8.4-33.6
		c1.3-5.2,3.1-10.3,3.5-15.8c1.4-2,2.7-4.1,5.2-4.8c0.4,0,0.8,0.1,0.9,0.6C236.5,88.9,236.5,89.1,236.2,89.3z"/>
	<path class="st11" d="M59.2,201.3c1.2-0.8,0.6-1.8,0.3-2.7c-3.4-13.8-6.8-27.7-10.2-41.5c-1.9-7.7-4.1-15.4-6.1-23
		c0.7-1.1,1.6-2.1,2.8-2.8c1.4,0.5,1.6,1.7,1.9,2.9c4.7,19.3,9.6,38.6,14.4,58c0.9,3.6,2.1,7.2,2.5,10.9c0.1,1,0.9,2.5-1.1,2.8
		C62,204.5,60.5,202.9,59.2,201.3z"/>
	<path class="st12" d="M63.7,205.8c1.4-2.7-0.1-5.2-0.7-7.6c-3-11.8-6-23.7-8.8-35.5c-2.3-9.7-5.2-19.3-7.2-29.1
		c-0.2-0.8-0.7-1.5-1-2.3c0.5-0.8,1-1.9,1.9-1.8c1.3,0.1,0.9,1.5,1.1,2.3c4,15.8,8,31.6,11.9,47.4c2.2,9,4.4,18,6.6,27
		c0.3,1.1,0.8,2.2-0.4,3C65.7,208.2,64.6,207.1,63.7,205.8z"/>
	<path class="st13" d="M28,149.2c2.2,3,2.2,6.8,3.2,10.2c1.4,4.9,2.4,9.8,3.7,14.7c0.3,1,0.5,1.8-0.9,2c-3.8-3.7-7.7-7.2-11.2-11.1
		c-4-4.4-3.1-9.1,2.2-13.6C26.1,150.8,26.4,149,28,149.2z"/>
	<path class="st14" d="M236.2,89.3c0-0.2,0-0.4,0-0.6c0.9,0.2,1.4,0.9,2,1.5c21,20.9,41.9,41.9,62.8,62.9c0.5,0.5,0.9,1.1,1.4,1.7
		c-1.2-0.3-1.8-1.3-2.6-2.1c-20.4-20.4-40.8-40.8-61.2-61.1C237.9,90.7,237,90,236.2,89.3z"/>
	<path class="st15" d="M161.9,160.3c0-0.3-0.1-0.6-0.1-1c3.9-4.5,8.4-8.4,12.5-12.7c1.9-1.3,2.8-3.8,5.3-4.3
		c0.2,0.2,0.3,0.4,0.4,0.7c-0.1,1.2-1,1.8-1.7,2.6c-1.7,1.7-3.4,3.4-5.1,5.1c-1.3,1.3-2.6,2.6-3.9,3.9c-3.4,3.5-3.4,7,0,10.4
		c1.1,1.2,2.3,2.3,3.4,3.4c0.9,1,1.9,1.9,2.8,2.8c0.9,1,1.9,1.9,2.8,2.8c1,1.1,2.2,2.1,3.1,3.2c0.1,0.2,0.2,0.5,0.2,0.7
		c0,0.3-0.1,0.5-0.3,0.7c-5.6-5.5-11.2-11.1-16.8-16.6C163.8,161.4,163.2,160.3,161.9,160.3z"/>
	<path class="st16" d="M128.3,125.6c-2.3-2.2-4.6-4.3-6.8-6.6C110.7,108.2,99.9,97.4,89,86.6c0.2-0.2,0.4-0.4,0.6-0.6
		c0.4,0,0.7,0.3,1,0.6c5.7,4.9,10.7,10.6,16.1,15.8c3.1,3.2,6.3,6.4,9.5,9.5c3.1,3.2,6.3,6.3,9.4,9.5c1,1.4,2.8,2.2,3.3,4.1
		C128.8,125.7,128.6,125.8,128.3,125.6z"/>
	<path class="st17" d="M204.3,200.7c0.4,0.8,0.9,1.3,1.7,1.7c7.5,7.6,15,15.2,22.5,22.8c0.8,0.8,1.8,1.4,2.1,2.5
		c-0.3-0.2-0.7-0.3-1-0.5c-9.2-9.2-18.3-18.4-27.5-27.7c-0.2-0.1-0.2-0.2-0.2-0.4c0-0.1,0.1-0.2,0.1-0.2c0.5-0.2,0.9,0.1,1.3,0.3
		C203.8,199.6,203.9,200.3,204.3,200.7z"/>
	<path class="st18" d="M579.3,93.7c0.4,4.6-0.9,9-1.2,13.5c-0.5,6.7-1.4,13.4-2.1,20.1c-0.1,1.1,0,2.2-1,3.2
		c-1.1-0.7-0.7-1.7-0.7-2.7c1,0.2,0.5-0.9,1-1.1c1.2-10.7,2.4-21.4,3.6-32C578.9,94.3,579.2,94,579.3,93.7z"/>
	<path class="st19" d="M202.1,199c0,0.2,0,0.3,0,0.5c-7.1-6.7-14-13.7-20.7-20.7c0-0.2,0-0.3,0-0.5c0.5-0.3,0.9,0,1.3,0.3
		c0.6,0.6,1.2,1.2,1.8,1.7c0.9,0.9,1.7,1.7,2.6,2.6c0.7,0.8,1.5,1.5,2.2,2.3c0.6,0.6,1.1,1.2,1.7,1.7c0.4,0.4,0.8,0.8,1.3,1.2
		c0.5,0.5,1,1,1.5,1.5c0.6,0.6,1.2,1.2,1.7,1.8c0.6,0.6,1.2,1.2,1.8,1.7c0.7,0.7,1.4,1.4,2.1,2.1c0.4,0.4,0.9,0.9,1.3,1.3
		C201.4,197.3,202.4,197.8,202.1,199z"/>
	<path class="st12" d="M28,149.2c-1.2,0.5-1.7,2-3,2.2c5.5-6,11.2-11.7,17.1-17.3c0.2,0,0.3,0,0.5,0c-2.1,2.2-4.1,4.5-6.2,6.7
		C33.4,143.3,30.6,146.1,28,149.2z"/>
	<path class="st20" d="M90.1,86.5c-0.2-0.2-0.4-0.3-0.5-0.5c3.5-3.8,7-7.6,11.1-10.9c-2,3.2-5.2,5.4-7.7,8.2
		c-0.8,0.9-1.6,1.8-2.4,2.6C90.5,86.1,90.5,86.5,90.1,86.5z"/>
	<path class="st21" d="M235.3,88.1c-1.9,1.2-3.4,2.8-4.7,4.6c-0.3,0.7-0.7,1.3-1.6,1.3c-0.2-0.1-0.2-0.2-0.2-0.4
		c0-0.1,0.1-0.2,0.1-0.2c1.9-2.1,3.9-4.2,5.8-6.2C235,87.4,235.2,87.7,235.3,88.1z"/>
	<path class="st22" d="M544.6,127.3c0.1,0.8,0.3,1.6-0.3,2.5c-1.1-1.9-0.9-3.9-0.7-5.9C544.4,124.9,543.6,126.4,544.6,127.3z"/>
	<path class="st23" d="M575.3,126.7c0.1,0.6,0.3,1.2-0.3,1.7c0,0-0.5-0.4-0.7-0.6c0-1.1-0.1-2.2-0.1-3.3
		C575.2,125,574.5,126.2,575.3,126.7z"/>
	<path class="st24" d="M558.6,121.2c0-1.1,0.1-2.2,0.1-3.3c0.4-0.4-0.1-1.5,1-1.2c0,0.6,0,1.1,0,1.7
		C558.7,119,559.6,120.5,558.6,121.2z"/>
	<path class="st25" d="M128.3,125.6c0.1,0,0.3,0,0.4,0c1.2-0.3,1.8,0.7,2.5,1.3c1.8,1.8,3.6,3.6,5.5,5.4c4.8,6.2,10.8,9.6,18.9,9.9
		c5.4,0.2,10.8,1.8,16.2,2.8c1.2,0.2,2.9,0.1,3,2.1c-3.8,3.8-7.5,7.6-11.2,11.4c-0.5,0.5-1,0.8-1.7,0.8c-10.5-10.5-21-21-31.4-31.5
		C129.6,127.2,129,126.4,128.3,125.6z"/>
	<path class="st26" d="M559.8,116.7c-0.3,0.4-0.7,0.8-1,1.2c0-0.5-0.1-1.1,0-1.6c0.1-0.4,0.2-1,0.7-0.8
		C560,115.7,559.8,116.3,559.8,116.7z"/>
	<path class="st27" d="M90.1,86.5c0.2-0.2,0.4-0.4,0.6-0.6c1.3,1.7,3.3,1.2,4.9,1.5c11.7,2.1,23.4,3.6,35,5.9
		c8.2,1.6,16.4,2.8,24.6,4.6c8,1.7,16.2,2.8,24.3,4.2c9,1.6,18,3.2,27,4.7c2.4,0.4,4.8,0.5,7,1.5c0,1.5-1.3,2.2-2.1,3.1
		c-2.2,2.3-4.6,4.6-6.8,6.9c-0.9,0.8-1.7,1.7-3,1.8c-10.5-1.8-21-3.9-31.6-5.7c-9.1-1.5-18.1-3.5-27.2-4.9c-11-1.7-22-3.8-32.9-5.8
		c-1.2-0.2-2.4-0.3-3.4-1C100.7,97.5,95.3,92.1,90.1,86.5z"/>
	<path class="st28" d="M204.3,118c3-3.2,6.1-6.4,9.1-9.6c1.3-1.1,2.5-2.2,3.8-3.3c0.2,0.2,0.2,0.4,0.2,0.7c-0.1,0.5-0.4,0.9-0.7,1.3
		c-1,1.1-2.1,2.1-3.1,3.1c-0.8,0.7-1.5,1.5-2.3,2.3c-0.8,0.7-1.5,1.5-2.3,2.2c-0.6,0.6-1.2,1.2-1.8,1.8c-0.9,0.7-1.5,2-2.9,2
		c-0.2-0.1-0.2-0.2-0.2-0.4C204.3,118,204.3,118,204.3,118z"/>
	<path class="st29" d="M217.2,105.5c0-0.1,0-0.3,0-0.4c2.2-2.6,4.6-5.1,7.3-7.3c0.2,0.2,0.2,0.4,0.2,0.7c-0.3,1-1.1,1.6-1.8,2.4
		c-1.1,1.1-2.1,2.1-3.2,3.2C219,104.7,218.5,105.8,217.2,105.5z"/>
	<path class="st30" d="M224.5,98.2c0-0.1,0-0.3,0-0.4c1.3-1.7,2.8-3.2,4.5-4.5c0,0.1,0,0.3,0,0.4c0.1,0.2,0.2,0.5,0.1,0.7
		c-0.8,1.3-2.1,2.3-3.2,3.4C225.5,98.2,225.1,98.5,224.5,98.2z"/>
	<path class="st31" d="M529.9,253c0,1.2,0,2.4,0,3.6c0,3.5-0.8,4.3-4.4,5c-4,0.8-6.2-0.2-7.3-3.2c-1.2-3.3-1.2-6.6-0.2-9.9
		c1-3.5,2.5-4.4,6.7-4.2c4.7,0.3,5.3,0.8,5.3,5.6C529.9,250.9,529.9,252,529.9,253z"/>
	<path class="st32" d="M495.9,124.1c-0.2,4.9-0.1,9.8-1.5,14.5c-0.8,2.6-2.1,4.6-5.1,4.7c-2.7,0.1-4.8-1.4-5.5-4.6
		c-2.2-9.8-2.1-19.6,0-29.4c0.6-2.7,2.2-4.5,5.3-4.5c3,0,4.5,1.8,5.3,4.4C495.8,114.1,495.6,119.2,495.9,124.1z"/>
	<path class="st33" d="M228.9,94.3c0-0.2,0-0.4,0-0.5c0.5-0.4,1.1-0.8,1.6-1.1c0.5,3.8-1,7.3-1.9,10.8c-4.1,16.5-8.4,33-12.6,49.5
		c-3.5,13.8-6.8,27.7-10.2,41.5c-0.5,2.1-1.1,4.1-1.7,6.1c-0.5-0.2-0.9-0.6-1.1-1.1c-0.9-1.2-0.4-2.5-0.1-3.8
		c3.2-13.2,6.8-26.3,9.9-39.6c3.2-13.2,6.6-26.4,9.9-39.6c1.6-6.4,3-12.9,4.8-19.2C228.1,96.4,228.3,95.3,228.9,94.3z"/>
	<path class="st16" d="M174.7,147.1c-0.6-0.9-1.4-1.1-2.4-1.3c-8.9-1.4-17.7-3.7-26.8-4.2c-0.7,0-1-0.4-1.4-0.8
		c-2.7-2.8-5.4-5.6-8.2-8.4c1-1,2.2-0.8,3.4-0.6c12.9,2.3,25.8,4.4,38.7,6.8c1.1,0.2,2.2,0.3,3.1,1.1c0.8,1.6-0.3,2.3-1.5,2.9
		C178,144.1,176.4,145.6,174.7,147.1z"/>
	<path class="st19" d="M181.3,177.7c-1.3-0.9-2.4-2-3.4-3.4c1.4-6.7,3.3-13.3,4.9-19.9c1.6-6.4,3.3-12.7,4.7-19.2
		c0.6-2,2.3-3.1,3.7-4.4c0.5-0.3,1.1-0.5,1.6-0.1c0.8,0.8,0.7,1.7,0.4,2.6c-2.6,10.4-4.9,20.8-7.9,31c-1,3.5-1.4,7.1-2.5,10.6
		C182.7,176,182.6,177.3,181.3,177.7z"/>
	<path class="st34" d="M188.1,135.2c0.3,2.1-0.7,3.9-1.1,5.8c-1.8,7.6-3.5,15.2-5.7,22.7c-1,3.6-1.2,7.4-3.3,10.7
		c-1.1-0.7-2.1-1.7-2.8-2.8c-0.1-2,0.6-3.8,1-5.7c2-8.4,4.4-16.8,6.2-25.2c0.2-1.2,1-2,1.8-2.9C185.5,136.9,186.1,135,188.1,135.2z"
		/>
	<path class="st35" d="M183,140.2c0.2,3.9-1.7,7.4-2.5,11.1c-1.3,6-2.8,12-4.2,18.1c-0.2,0.9-0.8,1.4-1.1,2.2
		c-1.1-0.7-2.1-1.7-2.8-2.8c-0.7-2.3,0.6-4.4,1-6.5c1.1-5.8,2.5-11.5,4.6-17c0.6-0.7,1.1-1.5,1.7-2.2
		C180.8,142,181.2,140.2,183,140.2z"/>
	<path class="st28" d="M181.3,177.7c2.3-6.4,3.2-13.1,5.1-19.6c1.9-6.6,3.5-13.3,5-20.1c0.5-2.4,2.1-4.7,1.2-7.4
		c0.7-2.5,1.5-3.3,3.6-3.1c-0.2,2.7-0.9,5.3-1.5,7.9c-2.9,11.4-5.9,22.7-8.5,34.1c-0.6,2.5-1.4,4.8-2.1,7.2c-0.2,0.8-0.2,2-1.5,2
		c-0.4-0.2-0.7-0.4-1.1-0.5C181.4,178.1,181.4,177.9,181.3,177.7z"/>
	<path class="st36" d="M178,145.3c0.4,2.1-0.6,4-1.2,5.9c-1.7,5.8-2.4,11.9-4.4,17.6c-1.3-0.9-2.5-2-3.4-3.4
		c1-5.1,2.1-10.2,3.9-15.1C174.4,148.4,176.1,146.7,178,145.3z"/>
	<path class="st37" d="M173,150.3c-0.6,5.2-1.7,10.3-3.9,15.1c-0.1,0-0.2-0.1-0.2-0.1c-1.2-1.1-3.5-2.3-3.1-3.6
		c0.7-2.3,0.4-5.2,2.6-7C169.9,153.3,171.4,151.8,173,150.3z"/>
	<path class="st37" d="M183,140.2c-1.1,0.9-2.2,1.9-3.3,2.8c0-0.1,0-0.3,0-0.4c0.6-0.8,1.2-1.5,1.8-2.3c0.4-1.7,1.4-2.8,3.2-3
		c0.2,0.1,0.2,0.3,0.2,0.4c0,0.2-0.1,0.2-0.1,0.2C184.2,138.7,183.6,139.5,183,140.2z"/>
	<path class="st38" d="M106.4,102.7c7.2,0.3,14,2.4,21,3.5c8.8,1.4,17.7,2.6,26.5,4.4c8.5,1.7,17.1,3,25.6,4.6
		c7.6,1.4,15.2,2.9,22.8,4.4c-1.2,2.9-3.7,4.7-6.1,6.6c-0.3,0.1-0.6,0.2-0.9,0.2c-7.5-1.2-15-2.6-22.6-3.9
		c-9.4-1.6-18.7-3.2-28.1-4.9c-9.6-1.7-19.3-3.3-28.8-5.3C112.5,109.3,109.3,106.1,106.4,102.7z"/>
	<path class="st20" d="M115.9,112.2c2.9-1.1,5.5,0.5,8.3,0.8c9.6,1.3,19.1,3.4,28.6,4.9c8.6,1.4,17.3,3,25.9,4.6
		c5.8,1.1,11.6,2.1,17.4,3.2c-1,2.2-3.2,3.4-4.7,5.2c-0.8,0.8-1.6,1.7-2.9,1.8c-7.3-1-14.5-2.5-21.7-3.7
		c-13.4-2.4-26.8-4.5-40.1-6.9c-0.5-0.1-0.9-0.2-1.4-0.3C122,118.8,118.8,115.6,115.9,112.2z"/>
	<path class="st39" d="M125.4,121.7c1.9-1.3,3.8-0.2,5.7,0.2c10.8,2,21.6,3.7,32.4,5.5c8.6,1.4,17.2,3.3,25.8,5
		c-0.7,2.4-3,3.4-4.5,5.2c-1.1,0.9-2.1,1.8-3.2,2.7c-5.5-1.9-11.4-2.3-17.1-3.4c-6.8-1.3-13.7-2.2-20.4-3.6c-2.6-0.5-5.3-1.1-8-0.9
		c-2.4-2.3-4.9-4.5-7.3-6.8C127.6,124.3,126.5,123,125.4,121.7z"/>
	<path class="st40" d="M228.9,94.3c-0.6,5.4-2.5,10.6-3.6,15.9c-1,5.2-2.6,10.3-3.9,15.5c-1.9,7.3-4,14.6-5.6,22
		c-1.4,6.5-3,12.9-4.6,19.3c-1.6,6.4-3.3,12.7-4.8,19.1c-1.1,4.5-2.1,9-3.1,13.4c-0.3-0.2-0.7-0.4-1-0.5c-0.6-0.7-1.2-1.5-1.8-2.2
		c2-7.6,3.7-15.3,5.7-23c1.8-6.7,3.3-13.5,5-20.3c3.4-13.3,6.6-26.7,10-40c1.1-4.3,2.1-8.7,3.3-13c0.3-1,0.6-2,1.1-2.8
		C226.5,96.3,227.6,95.2,228.9,94.3z"/>
	<path class="st41" d="M217.2,105.5c0.7-0.6,1.5-1.1,2.2-1.7c1.4,1,0.8,2.4,0.5,3.6c-3.6,13.2-6.7,26.5-9.9,39.8
		c-3.2,12.8-6.6,25.6-9.6,38.4c-0.4,1.7-0.8,3.4-1.3,5.1c-0.4,1.2-0.7,2.3-2.1,2.7c-0.7-0.4-1.3-0.9-1.7-1.7
		c-0.8-1.1-0.6-2.3-0.3-3.5c4.1-14.2,7.2-28.7,10.9-43c2-8,4.2-16,6.1-24.1c0.8-3.7,2-7.4,2.7-11.1c0.3-1.4,1.3-2.2,1.9-3.3
		C216.8,106.3,217,105.9,217.2,105.5z"/>
	<path class="st29" d="M204.3,118.4c0.9-0.8,1.8-1.5,2.8-2.3c1.1,3-0.5,5.6-1.2,8.3c-3.3,12.8-6.2,25.6-9.4,38.4
		c-1.8,6.9-3.4,13.9-5.4,20.7c-0.3,1-0.4,2.1-1.9,1.9c-1-0.5-1.7-1.3-2.2-2.2c-0.5-3.5,1.1-6.5,1.9-9.7c2.7-11.9,5.8-23.6,8.8-35.4
		c1.5-5.8,2.6-11.6,4.4-17.3C202.5,119.8,203.3,119,204.3,118.4z"/>
	<path class="st42" d="M202.6,120.6c-2.2,9.2-4.4,18.5-6.7,27.7c-2.9,11.7-6,23.3-9,35c-1.1-0.7-2.1-1.7-2.8-2.8
		c-0.7-1.1-0.2-2.2,0.1-3.2c2.9-10.2,5-20.5,7.6-30.8c1.7-6.8,3.9-13.6,5.1-20.5C198.4,123.8,200.1,121.7,202.6,120.6z"/>
	<path class="st17" d="M197,193.4c2.6-3.8,2.8-8.4,3.8-12.7c3.1-14.1,7.4-27.9,10.3-42c1.5-7.4,4.2-14.6,5.6-22
		c0.8-4.3,3.2-8.3,2.7-12.9c0.9-1.3,2-2.5,3.4-3.4c1,2.6,0,5.2-0.7,7.6c-1.8,6.1-2.7,12.5-4.7,18.6c-1.2,3.5-1,7.4-2.9,10.7
		c-0.5,0.8-0.5,1.7-0.7,2.6c0,0.3-0.1,0.5-0.2,0.7c-0.3,1.4-0.5,2.8-1,4.1c-0.2,0.7-0.4,1.5-0.6,2.2c-0.9,1.6-0.7,3.5-1,5.2
		c-0.5,1.3-0.9,2.7-1.1,4.1c-0.3,1-0.7,1.9-0.8,2.9c-0.9,2.8-1.4,5.7-2.2,8.6c-0.4,1.4-0.8,2.7-1,4.1c-0.1,0.5-0.4,0.9-0.6,1.4
		c-0.4,0.8-0.4,1.7-0.5,2.5c0,0.2-0.1,0.5-0.2,0.7c-0.3,1.4-0.5,2.7-1,4.1c-0.2,0.7-0.4,1.5-0.6,2.2c-0.9,1.6-0.7,3.5-1,5.2
		c-0.5,1.4-0.9,2.7-1.2,4.1c-0.3,1-0.6,2-1.1,3c-0.1,0.2-0.3,0.4-0.5,0.6C198.3,195.1,197.6,194.4,197,193.4z"/>
	<path class="st14" d="M213.8,137.4c1.5-5.4,3-10.7,4.3-16.1c1.4-5.5,2.6-11,3.9-16.6c0.3-1.4,0.5-2.8,0.7-4.3
		c0.6-0.7,1.1-1.5,1.7-2.2c0.4-0.2,0.7-0.4,1.1-0.6c-0.4,4.2-1.9,8.1-2.9,12.1c-1.8,7.6-3.8,15.2-5.7,22.9
		c-3.1,12.2-6.2,24.3-9.2,36.5c-2.1,8.3-4,16.6-6,25c-0.2,1-0.6,1.9-1.4,2.6c-0.4-0.4-0.7-0.7-1.1-1.1c0-0.2,0-0.4,0-0.6
		c0.8-0.8,0.7-1.9,1.1-2.8c-0.2-1.6,0.3-3.1,1.1-4.5c0.5-1.6,0.3-3.5,1.1-5c0.1-0.8-0.3-1.7,0.6-2.2c1-1.3,0.6-3,1.1-4.5
		c0.7-0.8-0.1-2,0.6-2.8c0-0.5,0.1-0.9,0.6-1.1c0.5-1.5,0.5-3,1.1-4.5c0.2-3.1,0.9-6.1,2.2-9c0.4-0.7,0.1-1.6,0.6-2.2
		c-0.2-1.6,0.3-3.1,1.1-4.5c0.5-1.6,0.3-3.5,1.1-5c0.1-0.8-0.3-1.7,0.6-2.2c1-1.3,0.6-3,1.1-4.5C214,139.4,213.2,138.3,213.8,137.4z
		"/>
	<path class="st21" d="M211,112.2c0.5-1,1.3-1.7,2.2-2.2c1.4,1.9,0.4,3.8,0,5.6c-3,12.7-6.5,25.2-9.4,37.8
		c-2.6,11.2-5.8,22.3-8.4,33.5c-0.3,1.2-0.6,2.4-1.8,3.1c-0.7-0.4-1.3-0.9-1.7-1.7c0.5-5.6,2.4-10.9,3.6-16.3
		c2.1-9.1,4.6-18.2,6.8-27.3c2.4-10.2,5-20.4,7.7-30.5C210.3,113.6,210.6,112.9,211,112.2z"/>
	<path class="st43" d="M193.7,190c3.1-11.8,6.3-23.5,9-35.4c1.9-8.2,4.1-16.3,6.1-24.4c1.7-6.7,3.9-13.3,4.4-20.3
		c0.9-1.3,2-2.5,3.4-3.4c-1.6,4.8-2.7,9.7-3.9,14.7c-1.4,5.9-3,11.8-4.5,17.8c-2.9,11.7-5.6,23.5-8.5,35.3c-1.2,4.8-2.6,9.6-4,14.4
		c-0.3,1-0.3,2-0.3,3C194.6,191.4,194,190.8,193.7,190z"/>
	<path class="st30" d="M211,112.2c-0.3,4.9-2.1,9.6-3.3,14.3c-2.4,10.1-4.9,20.1-7.4,30.2c-2.1,8.3-4.2,16.5-6.3,24.8
		c-0.6,2.3-0.6,4.8-2,6.9c-0.4-0.4-0.7-0.7-1.1-1.1c-0.4-3.6,1.2-6.9,2.1-10.3c3.9-15.7,7.7-31.5,11.7-47.1
		c1.3-5.1,2.2-10.4,4.1-15.3C209.3,113.5,210.1,112.8,211,112.2z"/>
	<path class="st30" d="M208.8,114.5c-0.5,5.6-2.3,10.8-3.6,16.2c-2.1,8.8-4.3,17.6-6.5,26.4c-2.4,9.5-4.8,19-7.2,28.4
		c-0.2,0.6-0.4,1.2-0.7,1.8c-0.8-0.4-1.3-0.9-1.7-1.7c1.9-2,2-4.7,2.5-7.1c1.5-7.3,3.8-14.4,5.5-21.7c2.7-11.4,5.4-22.8,8.3-34.2
		c0.5-2.1,0.9-4.3,1.6-6.4C207.5,115.4,208,114.8,208.8,114.5z"/>
	<path class="st44" d="M197.6,125.7c-0.4,5.7-2.3,11-3.7,16.4c-1.9,7.5-3.8,14.9-5.4,22.4c-1.1,5.4-2.9,10.7-4.4,16
		c-0.8-0.4-1.3-0.9-1.7-1.7c1.6-3.9,2.6-8,3.4-12.2c1-4.7,2.5-9.4,3.7-14.1c1.8-7.2,3.5-14.3,5.1-21.6c0.3-1.3,1.1-2.4,1.2-3.7
		c-0.3-0.6,0.1-0.9,0.4-1.2C196.7,125.9,197,125.3,197.6,125.7z"/>
	<path class="st34" d="M197.6,125.7c-0.4,0.2-0.7,0.4-1.1,0.6c-0.2-0.1-0.2-0.2-0.2-0.3c0.1-0.1,0.1-0.1,0.2-0.1
		c1.9-2.1,3.8-4.1,5.8-6.2c0.7-0.5,1.4-1.1,2.1-1.6c0,0.1,0,0.3,0,0.4c-0.6,0.7-1.1,1.5-1.7,2.2C200.7,122.1,199,123.8,197.6,125.7z
		"/>
	<path class="st36" d="M184.7,137.6c1.2-2,3.4-3.1,4.5-5.2c0.7-0.5,1.5-1,2.2-1.5c0.1,0.1,0.2,0.2,0.1,0.3c0,0.1-0.1,0.1-0.1,0.1
		c-1.1,1.3-2.3,2.6-3.4,3.9c-1.1,0.9-2.2,1.9-3.3,2.8C184.7,137.8,184.7,137.7,184.7,137.6z"/>
	<path class="st35" d="M191.5,131.3c0-0.1,0-0.3,0-0.4c1.5-1.7,3.1-3.4,4.6-5.1c0.1,0,0.3,0,0.4,0c0,0.1,0,0.3,0,0.4
		c-0.2,0.4-0.4,0.7-0.6,1.1c-1.3,0.9-2.5,2-3.4,3.4C192.2,130.9,191.8,131.1,191.5,131.3z"/>
	<path class="st17" d="M211.6,146.9c0,1.8-0.4,3.4-1.1,5C210.6,150.2,210.1,148.4,211.6,146.9z"/>
	<path class="st17" d="M202.6,182.8c0,1.8-0.4,3.4-1.1,5C201.6,186.1,201.1,184.2,202.6,182.8z"/>
	<path class="st17" d="M204.3,176c-0.1,1.6,0.4,3.3-1.1,4.5C203.5,179,203.5,177.4,204.3,176z"/>
	<path class="st17" d="M206.5,167.6c0,1.6-0.3,3.1-1.1,4.5C205.4,170.5,205.5,169,206.5,167.6z"/>
	<path class="st17" d="M213.3,140.2c-0.1,1.6,0.4,3.3-1.1,4.5C212.4,143.2,212.4,141.6,213.3,140.2z"/>
	<path class="st17" d="M200.4,192.3c0,1.1,0.2,2.2-1.1,2.8C199.5,194.1,199.6,193.1,200.4,192.3z"/>
	<path class="st17" d="M204.9,173.2c-0.1,0.9,0.4,2-0.6,2.8C204.4,175.1,203.9,174,204.9,173.2z"/>
	<path class="st17" d="M209.3,156.5c-0.1,0.8,0.3,1.7-0.6,2.2C208.3,157.8,208.7,157.1,209.3,156.5z"/>
	<path class="st17" d="M213.8,137.4c-0.1,0.9,0.4,2-0.6,2.8C213.4,139.3,212.9,138.2,213.8,137.4z"/>
</g>
</svg>
